<?xml version="1.0" encoding="UTF-8" standalone="no"?>
<!-- Created with Inkscape (http://www.inkscape.org/) -->

<svg
   xmlns:dc="http://purl.org/dc/elements/1.1/"
   xmlns:cc="http://creativecommons.org/ns#"
   xmlns:rdf="http://www.w3.org/1999/02/22-rdf-syntax-ns#"
   xmlns:svg="http://www.w3.org/2000/svg"
   xmlns="http://www.w3.org/2000/svg"
   xmlns:sodipodi="http://sodipodi.sourceforge.net/DTD/sodipodi-0.dtd"
   xmlns:inkscape="http://www.inkscape.org/namespaces/inkscape"
   width="167.42119mm"
   height="28.057419mm"
   viewBox="0 0 167.42119 28.057419"
   version="1.1"
   id="svg2592"
   inkscape:version="0.92.3 (2405546, 2018-03-11)"
   sodipodi:docname="cyberLogo_v2.svg">
  <defs
     id="defs2586" />
  <sodipodi:namedview
     id="base"
     pagecolor="#ffffff"
     bordercolor="#666666"
     borderopacity="1.0"
     inkscape:pageopacity="0.0"
     inkscape:pageshadow="2"
     inkscape:zoom="0.98994949"
     inkscape:cx="215.49486"
     inkscape:cy="73.030138"
     inkscape:document-units="mm"
     inkscape:current-layer="layer1"
     showgrid="false"
     fit-margin-top="0"
     fit-margin-left="0"
     fit-margin-right="0"
     fit-margin-bottom="0"
     inkscape:window-width="1920"
     inkscape:window-height="1009"
     inkscape:window-x="-8"
     inkscape:window-y="-8"
     inkscape:window-maximized="1"
     showguides="true"
     inkscape:guide-bbox="true">
    <sodipodi:guide
       position="166.70937,36.014569"
       orientation="0,1"
       id="guide7361"
       inkscape:locked="false" />
  </sodipodi:namedview>
  <metadata
     id="metadata2589">
    <rdf:RDF>
      <cc:Work
         rdf:about="">
        <dc:format>image/svg+xml</dc:format>
        <dc:type
           rdf:resource="http://purl.org/dc/dcmitype/StillImage" />
        <dc:title></dc:title>
      </cc:Work>
    </rdf:RDF>
  </metadata>
  <g
     inkscape:label="Layer 1"
     inkscape:groupmode="layer"
     id="layer1"
     transform="translate(45.55918,-174.43017)">
    <g
       aria-label="STEP SEQUENCER"
       style="font-style:normal;font-weight:normal;font-size:9.74115181px;line-height:1.25;font-family:sans-serif;letter-spacing:0px;word-spacing:0px;display:inline;fill:#000000;fill-opacity:1;stroke:none;stroke-width:0.24352878"
       id="text2927"
       transform="matrix(0.92077612,0,0,0.92077612,0.528403,15.733234)">
      <path
         d="m -0.75867182,201.00358 0.68492474,-0.0666 q 0.06183348,0.34484 0.24971214,0.50656 0.19025688,0.16172 0.51131535,0.16172 0.34008419,0 0.51131529,-0.1427 0.1736094,-0.14507 0.1736094,-0.3377 0,-0.12367 -0.073724,-0.20929 -0.071346,-0.088 -0.2520903,-0.1522 -0.12366702,-0.0428 -0.56363603,-0.15221 -0.56601419,-0.14031 -0.79432244,-0.34484 -0.32105847,-0.28776 -0.32105847,-0.70157 0,-0.26636 0.14982729,-0.49705 0.15220549,-0.23306 0.43521259,-0.35435 0.28538531,-0.12129 0.68730295,-0.12129 0.65638621,0 0.98695751,0.28777 0.3329495,0.28776 0.349597,0.76816 l -0.7039504,0.0309 q -0.045186,-0.26874 -0.1950133,-0.38527 -0.14744908,-0.11892 -0.44472544,-0.11892 -0.30678921,0 -0.4803986,0.12605 -0.11177592,0.0809 -0.11177592,0.21642 0,0.12366 0.10464128,0.21166 0.13317981,0.11177 0.64687337,0.23306 0.51369351,0.12129 0.75864931,0.25209 0.2473339,0.12843 0.3852701,0.35436 0.1403145,0.22355 0.1403145,0.55412 0,0.29965 -0.1664748,0.56126 -0.1664748,0.2616 -0.4708858,0.39002 -0.3044109,0.12605 -0.75864923,0.12605 -0.66114262,0 -1.01549605,-0.30441 -0.35435342,-0.30679 -0.42332154,-0.89183 z"
         style="font-style:normal;font-variant:normal;font-weight:bold;font-stretch:normal;font-size:4.8705759px;font-family:Arial;-inkscape-font-specification:'Arial Bold';letter-spacing:2.43528795px;fill:#00ff00;stroke-width:0.24352878"
         id="path7242"
         inkscape:connector-curvature="0" />
      <path
         d="m 5.8931842,202.13799 v -2.89667 H 4.8586625 v -0.58979 h 2.7706157 v 0.58979 H 6.5971347 v 2.89667 z"
         style="font-style:normal;font-variant:normal;font-weight:bold;font-stretch:normal;font-size:4.8705759px;font-family:Arial;-inkscape-font-specification:'Arial Bold';letter-spacing:2.43528795px;fill:#00ff00;stroke-width:0.24352878"
         id="path7244"
         inkscape:connector-curvature="0" />
      <path
         d="m 10.521182,202.13799 v -3.48646 h 2.585115 v 0.58979 h -1.881164 v 0.77292 h 1.750363 v 0.58742 h -1.750363 v 0.94891 h 1.947754 v 0.58742 z"
         style="font-style:normal;font-variant:normal;font-weight:bold;font-stretch:normal;font-size:4.8705759px;font-family:Arial;-inkscape-font-specification:'Arial Bold';letter-spacing:2.43528795px;fill:#00ff00;stroke-width:0.24352878"
         id="path7246"
         inkscape:connector-curvature="0" />
      <path
         d="m 16.209863,202.13799 v -3.48646 h 1.12965 q 0.642117,0 0.83713,0.0523 0.299655,0.0785 0.501803,0.34246 0.202148,0.2616 0.202148,0.67779 0,0.32106 -0.116533,0.53986 -0.116532,0.21879 -0.297276,0.34484 -0.178366,0.12366 -0.363866,0.16409 -0.252091,0.0499 -0.730111,0.0499 h -0.458995 v 1.31516 z m 0.70395,-2.89667 v 0.98934 h 0.38527 q 0.416187,0 0.556502,-0.0547 0.140314,-0.0547 0.218795,-0.17123 0.08086,-0.11653 0.08086,-0.27112 0,-0.19025 -0.111776,-0.31392 -0.111776,-0.12367 -0.283007,-0.15458 -0.126045,-0.0238 -0.506559,-0.0238 z"
         style="font-style:normal;font-variant:normal;font-weight:bold;font-stretch:normal;font-size:4.8705759px;font-family:Arial;-inkscape-font-specification:'Arial Bold';letter-spacing:2.43528795px;fill:#00ff00;stroke-width:0.24352878"
         id="path7248"
         inkscape:connector-curvature="0" />
      <path
         d="m 25.420674,201.00358 0.684925,-0.0666 q 0.06183,0.34484 0.249712,0.50656 0.190257,0.16172 0.511315,0.16172 0.340085,0 0.511316,-0.1427 0.173609,-0.14507 0.173609,-0.3377 0,-0.12367 -0.07372,-0.20929 -0.07135,-0.088 -0.252091,-0.1522 -0.123667,-0.0428 -0.563636,-0.15221 -0.566014,-0.14031 -0.794322,-0.34484 -0.321059,-0.28776 -0.321059,-0.70157 0,-0.26636 0.149828,-0.49705 0.152205,-0.23306 0.435212,-0.35435 0.285386,-0.12129 0.687303,-0.12129 0.656386,0 0.986958,0.28777 0.332949,0.28776 0.349597,0.76816 l -0.703951,0.0309 q -0.04519,-0.26874 -0.195013,-0.38527 -0.147449,-0.11892 -0.444725,-0.11892 -0.30679,0 -0.480399,0.12605 -0.111776,0.0809 -0.111776,0.21642 0,0.12366 0.104641,0.21166 0.13318,0.11177 0.646874,0.23306 0.513693,0.12129 0.758649,0.25209 0.247334,0.12843 0.38527,0.35436 0.140315,0.22355 0.140315,0.55412 0,0.29965 -0.166475,0.56126 -0.166475,0.2616 -0.470886,0.39002 -0.304411,0.12605 -0.758649,0.12605 -0.661143,0 -1.015496,-0.30441 -0.354354,-0.30679 -0.423322,-0.89183 z"
         style="font-style:normal;font-variant:normal;font-weight:bold;font-stretch:normal;font-size:4.8705759px;font-family:Arial;-inkscape-font-specification:'Arial Bold';letter-spacing:2.43528795px;fill:#00ff00;stroke-width:0.24352878"
         id="path7250"
         inkscape:connector-curvature="0" />
      <path
         d="m 31.287719,202.13799 v -3.48646 h 2.585115 v 0.58979 h -1.881165 v 0.77292 h 1.750363 v 0.58742 h -1.750363 v 0.94891 h 1.947755 v 0.58742 z"
         style="font-style:normal;font-variant:normal;font-weight:bold;font-stretch:normal;font-size:4.8705759px;font-family:Arial;-inkscape-font-specification:'Arial Bold';letter-spacing:2.43528795px;fill:#00ff00;stroke-width:0.24352878"
         id="path7252"
         inkscape:connector-curvature="0" />
      <path
         d="m 39.782688,201.69564 q 0.259225,0.1855 0.563636,0.2949 l -0.259225,0.49704 q -0.15934,-0.0476 -0.311545,-0.1308 -0.0333,-0.0166 -0.468508,-0.30917 -0.342462,0.14983 -0.758649,0.14983 -0.803835,0 -1.260452,-0.47326 -0.454238,-0.47327 -0.454238,-1.32942 0,-0.85378 0.456616,-1.32705 0.456617,-0.47564 1.239048,-0.47564 0.775297,0 1.229535,0.47564 0.454238,0.47327 0.454238,1.32705 0,0.45186 -0.126045,0.79432 -0.09513,0.2616 -0.304411,0.50656 z m -0.566014,-0.39716 q 0.135558,-0.15934 0.202148,-0.38527 0.06897,-0.22593 0.06897,-0.51845 0,-0.60407 -0.266359,-0.90135 -0.26636,-0.29965 -0.696816,-0.29965 -0.430456,0 -0.699194,0.29965 -0.26636,0.29966 -0.26636,0.90135 0,0.6112 0.26636,0.91561 0.268738,0.30203 0.67779,0.30203 0.152205,0 0.287763,-0.0499 -0.214039,-0.14032 -0.435212,-0.2188 l 0.197391,-0.40191 q 0.347219,0.11891 0.663521,0.35673 z"
         style="font-style:normal;font-variant:normal;font-weight:bold;font-stretch:normal;font-size:4.8705759px;font-family:Arial;-inkscape-font-specification:'Arial Bold';letter-spacing:2.43528795px;fill:#00ff00;stroke-width:0.24352878"
         id="path7254"
         inkscape:connector-curvature="0" />
      <path
         d="m 43.193044,198.65153 h 0.703951 v 1.8883 q 0,0.44948 0.02616,0.58266 0.04519,0.21404 0.214039,0.34484 0.171231,0.12842 0.466129,0.12842 0.299655,0 0.45186,-0.12129 0.152206,-0.12366 0.183123,-0.30203 0.03092,-0.17836 0.03092,-0.59217 v -1.92873 h 0.703951 v 1.83122 q 0,0.62785 -0.05708,0.88707 -0.05708,0.25923 -0.211661,0.43759 -0.152206,0.17837 -0.409052,0.28539 -0.256847,0.10464 -0.670656,0.10464 -0.499424,0 -0.758649,-0.11415 -0.256847,-0.11654 -0.406674,-0.29966 -0.149827,-0.1855 -0.197392,-0.38765 -0.06897,-0.29965 -0.06897,-0.88469 z"
         style="font-style:normal;font-variant:normal;font-weight:bold;font-stretch:normal;font-size:4.8705759px;font-family:Arial;-inkscape-font-specification:'Arial Bold';letter-spacing:2.43528795px;fill:#00ff00;stroke-width:0.24352878"
         id="path7256"
         inkscape:connector-curvature="0" />
      <path
         d="m 49.152841,202.13799 v -3.48646 h 2.585115 v 0.58979 h -1.881165 v 0.77292 h 1.750363 v 0.58742 h -1.750363 v 0.94891 h 1.947755 v 0.58742 z"
         style="font-style:normal;font-variant:normal;font-weight:bold;font-stretch:normal;font-size:4.8705759px;font-family:Arial;-inkscape-font-specification:'Arial Bold';letter-spacing:2.43528795px;fill:#00ff00;stroke-width:0.24352878"
         id="path7258"
         inkscape:connector-curvature="0" />
      <path
         d="m 54.848654,202.13799 v -3.48646 h 0.684925 l 1.426926,2.32827 v -2.32827 h 0.654008 v 3.48646 h -0.706328 l -1.405523,-2.27357 v 2.27357 z"
         style="font-style:normal;font-variant:normal;font-weight:bold;font-stretch:normal;font-size:4.8705759px;font-family:Arial;-inkscape-font-specification:'Arial Bold';letter-spacing:2.43528795px;fill:#00ff00;stroke-width:0.24352878"
         id="path7260"
         inkscape:connector-curvature="0" />
      <path
         d="m 63.027321,200.85613 0.682547,0.21642 q -0.156962,0.57077 -0.523207,0.84902 -0.363866,0.27587 -0.925124,0.27587 -0.694437,0 -1.141541,-0.47326 -0.447104,-0.47565 -0.447104,-1.29851 0,-0.87042 0.449482,-1.35082 0.449482,-0.48278 1.181971,-0.48278 0.639739,0 1.039278,0.37814 0.237821,0.22355 0.356732,0.64212 l -0.696816,0.16647 q -0.06183,-0.27112 -0.259225,-0.42808 -0.195013,-0.15696 -0.475642,-0.15696 -0.387648,0 -0.630226,0.27825 -0.240199,0.27825 -0.240199,0.90134 0,0.66115 0.237821,0.94177 0.237821,0.28063 0.618335,0.28063 0.280629,0 0.482776,-0.17836 0.202148,-0.17837 0.290142,-0.56126 z"
         style="font-style:normal;font-variant:normal;font-weight:bold;font-stretch:normal;font-size:4.8705759px;font-family:Arial;-inkscape-font-specification:'Arial Bold';letter-spacing:2.43528795px;fill:#00ff00;stroke-width:0.24352878"
         id="path7262"
         inkscape:connector-curvature="0" />
      <path
         d="m 66.751603,202.13799 v -3.48646 h 2.585115 v 0.58979 h -1.881164 v 0.77292 h 1.750363 v 0.58742 h -1.750363 v 0.94891 h 1.947754 v 0.58742 z"
         style="font-style:normal;font-variant:normal;font-weight:bold;font-stretch:normal;font-size:4.8705759px;font-family:Arial;-inkscape-font-specification:'Arial Bold';letter-spacing:2.43528795px;fill:#00ff00;stroke-width:0.24352878"
         id="path7264"
         inkscape:connector-curvature="0" />
      <path
         d="m 72.442656,202.13799 v -3.48646 h 1.481626 q 0.558879,0 0.81097,0.0951 0.254468,0.0927 0.406674,0.33295 0.152205,0.2402 0.152205,0.54936 0,0.39241 -0.230686,0.64925 -0.230687,0.25447 -0.689681,0.32106 0.228308,0.13318 0.375757,0.29252 0.149827,0.15934 0.401918,0.56602 l 0.425699,0.68017 h -0.841886 l -0.508938,-0.75865 q -0.271116,-0.40668 -0.371,-0.51132 -0.09989,-0.10702 -0.211661,-0.14507 -0.111776,-0.0404 -0.354354,-0.0404 h -0.142692 v 1.45547 z m 0.703951,-2.01197 h 0.520828 q 0.506559,0 0.632604,-0.0428 0.126045,-0.0428 0.197392,-0.14745 0.07135,-0.10464 0.07135,-0.2616 0,-0.17599 -0.09513,-0.28301 -0.09275,-0.1094 -0.263981,-0.13793 -0.08562,-0.0119 -0.513694,-0.0119 H 73.14661 Z"
         style="font-style:normal;font-variant:normal;font-weight:bold;font-stretch:normal;font-size:4.8705759px;font-family:Arial;-inkscape-font-specification:'Arial Bold';letter-spacing:2.43528795px;fill:#00ff00;stroke-width:0.24352878"
         id="path7266"
         inkscape:connector-curvature="0" />
    </g>
    <g
       id="g7359">
      <g
         id="g7344">
        <g
           id="g7330">
          <path
             d="m -45.559177,188.96302 h 13.220084 v -1.10167 h -13.220084 z m 0,-11.01674 h 13.220084 v -1.10167 h -13.220084 z m 2.203348,-2.20334 h 11.016736 v -1.10168 h -11.016736 z m 0,15.42343 h 11.016736 v -1.10168 h -11.016736 z m -2.203348,-8.81339 h 4.406695 v -1.10168 h -4.406695 z m 0,-2.20335 h 4.406695 v -1.10167 h -4.406695 z m 0,6.61004 h 4.406695 V 185.658 h -4.406695 z m 0,-2.20335 h 4.406695 v -1.10167 h -4.406695 z"
             style="font-style:normal;font-variant:normal;font-weight:normal;font-stretch:normal;font-size:medium;line-height:1.25;font-family:'Edit Undo Line BRK';-inkscape-font-specification:'Edit Undo Line BRK';letter-spacing:0px;word-spacing:0px;fill:#ffffff;fill-opacity:1;stroke:none;stroke-width:0.61204094"
             id="path7208"
             inkscape:connector-curvature="0" />
          <path
             d="m -31.214468,182.35298 h 13.220083 v -1.10168 h -13.220083 z m 2.203347,2.20334 h 8.813389 v -1.10167 h -8.813389 z m 2.203347,2.20335 h 4.406695 V 185.658 h -4.406695 z m 0,2.20335 h 4.406695 v -1.10167 h -4.406695 z m 0,2.20335 h 4.406695 v -1.10168 h -4.406695 z m -4.406694,-11.01674 h 4.406694 v -1.10167 h -4.406694 z m 8.813389,0 h 4.406694 v -1.10167 h -4.406694 z m -8.813389,-2.20335 h 4.406694 v -1.10167 h -4.406694 z m 8.813389,0 h 4.406694 v -1.10167 h -4.406694 z m -8.813389,-2.20334 h 4.406694 v -1.10168 h -4.406694 z m 8.813389,0 h 4.406694 v -1.10168 h -4.406694 z"
             style="font-style:normal;font-variant:normal;font-weight:normal;font-stretch:normal;font-size:medium;line-height:1.25;font-family:'Edit Undo Line BRK';-inkscape-font-specification:'Edit Undo Line BRK';letter-spacing:0px;word-spacing:0px;fill:#ffffff;fill-opacity:1;stroke:none;stroke-width:0.61204094"
             id="path7210"
             inkscape:connector-curvature="0" />
          <path
             d="m -16.869759,188.96302 h 13.2200839 v -1.10167 H -16.869759 Z m 0,-11.01674 h 13.2200839 v -1.10167 H -16.869759 Z m 0,13.22009 h 11.0167366 v -1.10168 H -16.869759 Z m 0,-6.61005 h 11.0167366 v -1.10167 H -16.869759 Z m 0,-8.81338 h 11.0167366 v -1.10168 H -16.869759 Z m 0,6.61004 H -5.8530224 V 181.2513 H -16.869759 Z m 0,4.40669 h 4.406695 V 185.658 h -4.406695 z m 0,-6.61004 h 4.406695 v -1.10167 h -4.406695 z m 8.8133894,0 h 4.4066945 v -1.10167 h -4.4066945 z m 0,6.61004 h 4.4066945 V 185.658 h -4.4066945 z"
             style="font-style:normal;font-variant:normal;font-weight:normal;font-stretch:normal;font-size:medium;line-height:1.25;font-family:'Edit Undo Line BRK';-inkscape-font-specification:'Edit Undo Line BRK';letter-spacing:0px;word-spacing:0px;fill:#ffffff;fill-opacity:1;stroke:none;stroke-width:0.61204094"
             id="path7212"
             inkscape:connector-curvature="0" />
          <path
             d="M -2.5250511,188.96302 H 10.695032 v -1.10167 H -2.5250511 Z m 0,-11.01674 H 10.695032 v -1.10167 H -2.5250511 Z m 2.20334723,-2.20334 H 10.695032 v -1.10168 H -0.32170387 Z m 0,15.42343 H 10.695032 v -1.10168 H -0.32170387 Z m -2.20334723,-8.81339 h 8.813389 v -1.10168 h -8.813389 z m 0,2.20334 h 8.813389 v -1.10167 h -8.813389 z m 0,-4.40669 h 4.4066945 v -1.10167 h -4.4066945 z m 0,6.61004 H 1.8816434 V 185.658 h -4.4066945 z"
             style="font-style:normal;font-variant:normal;font-weight:normal;font-stretch:normal;font-size:medium;line-height:1.25;font-family:'Edit Undo Line BRK';-inkscape-font-specification:'Edit Undo Line BRK';letter-spacing:0px;word-spacing:0px;fill:#ffffff;fill-opacity:1;stroke:none;stroke-width:0.61204094"
             id="path7214"
             inkscape:connector-curvature="0" />
          <path
             d="M 11.819656,182.35298 H 25.03974 V 181.2513 H 11.819656 Z m 0,-4.4067 H 25.03974 v -1.10167 H 11.819656 Z m 0,-2.20334 h 11.016737 v -1.10168 H 11.819656 Z m 0,8.81338 h 11.016737 v -1.10167 H 11.819656 Z m 6.610042,2.20335 H 25.03974 V 185.658 h -6.610042 z m 2.203347,-6.61004 h 4.406695 v -1.10167 h -4.406695 z m -8.813389,11.01674 h 4.406695 v -1.10168 h -4.406695 z m 8.813389,-2.20335 h 4.406695 v -1.10167 h -4.406695 z m -8.813389,-8.81339 h 4.406695 v -1.10167 h -4.406695 z m 0,6.61004 h 4.406695 V 185.658 h -4.406695 z m 8.813389,4.4067 h 4.406695 v -1.10168 h -4.406695 z m -8.813389,-2.20335 h 4.406695 v -1.10167 h -4.406695 z"
             style="font-style:normal;font-variant:normal;font-weight:normal;font-stretch:normal;font-size:medium;line-height:1.25;font-family:'Edit Undo Line BRK';-inkscape-font-specification:'Edit Undo Line BRK';letter-spacing:0px;word-spacing:0px;fill:#ffffff;fill-opacity:1;stroke:none;stroke-width:0.61204094"
             id="path7216"
             inkscape:connector-curvature="0" />
          <path
             d="m 26.164364,188.96302 h 13.220083 v -1.10167 H 26.164364 Z m 2.203347,2.20335 H 37.1811 v -1.10168 h -8.813389 z m -2.203347,-4.4067 h 4.406694 V 185.658 h -4.406694 z m 8.813389,0 h 4.406694 V 185.658 h -4.406694 z m 0,-2.20335 h 4.406694 v -1.10167 h -4.406694 z m 0,-2.20334 h 4.406694 v -1.10168 h -4.406694 z m 0,-2.20335 h 4.406694 v -1.10167 h -4.406694 z m 0,-2.20335 h 4.406694 v -1.10167 h -4.406694 z m 0,-2.20334 h 4.406694 v -1.10168 h -4.406694 z"
             style="font-style:normal;font-variant:normal;font-weight:normal;font-stretch:normal;font-size:medium;line-height:1.25;font-family:'Edit Undo Line BRK';-inkscape-font-specification:'Edit Undo Line BRK';letter-spacing:0px;word-spacing:0px;fill:#ffffff;fill-opacity:1;stroke:none;stroke-width:0.61204094"
             id="path7218"
             inkscape:connector-curvature="0" />
          <path
             d="m 40.509075,184.55632 h 13.220084 v -1.10167 H 40.509075 Z m 0,-2.20334 H 53.729159 V 181.2513 H 40.509075 Z m 0,-4.4067 h 13.220084 v -1.10167 H 40.509075 Z m 2.203347,-2.20334 h 8.813389 v -1.10168 h -8.813389 z m 6.610042,11.01673 h 4.406695 V 185.658 h -4.406695 z m -8.813389,4.4067 h 4.406695 v -1.10168 h -4.406695 z m 0,-2.20335 h 4.406695 v -1.10167 h -4.406695 z m 8.813389,0 h 4.406695 v -1.10167 h -4.406695 z m -8.813389,-8.81339 h 4.406695 v -1.10167 h -4.406695 z m 0,6.61004 H 44.91577 V 185.658 h -4.406695 z m 8.813389,-6.61004 h 4.406695 v -1.10167 h -4.406695 z m 0,11.01674 h 4.406695 v -1.10168 h -4.406695 z"
             style="font-style:normal;font-variant:normal;font-weight:normal;font-stretch:normal;font-size:medium;line-height:1.25;font-family:'Edit Undo Line BRK';-inkscape-font-specification:'Edit Undo Line BRK';letter-spacing:0px;word-spacing:0px;fill:#ffffff;fill-opacity:1;stroke:none;stroke-width:0.61204094"
             id="path7220"
             inkscape:connector-curvature="0" />
          <path
             d="M 54.853779,182.35298 H 70.27721 V 181.2513 H 54.853779 Z m 0,-2.20335 H 70.27721 v -1.10167 H 54.853779 Z m 8.813389,-2.20335 h 6.610042 v -1.10167 h -6.610042 z m -8.813389,0 h 6.610042 v -1.10167 h -6.610042 z m 0,13.22009 h 4.406694 v -1.10168 h -4.406694 z m 0,-15.42343 h 4.406694 v -1.10168 h -4.406694 z m 0,8.81338 h 4.406694 v -1.10167 h -4.406694 z m 11.016736,-8.81338 h 4.406695 v -1.10168 h -4.406695 z m -11.016736,13.22008 h 4.406694 v -1.10167 h -4.406694 z m 0,-2.20335 h 4.406694 V 185.658 h -4.406694 z m 11.016736,4.4067 h 4.406695 v -1.10168 h -4.406695 z m 0,-4.4067 H 70.27721 V 185.658 h -4.406695 z m 0,-2.20335 h 4.406695 v -1.10167 h -4.406695 z m 0,4.4067 h 4.406695 v -1.10167 h -4.406695 z m -4.406694,-4.4067 h 2.203347 v -1.10167 h -2.203347 z"
             style="font-style:normal;font-variant:normal;font-weight:normal;font-stretch:normal;font-size:medium;line-height:1.25;font-family:'Edit Undo Line BRK';-inkscape-font-specification:'Edit Undo Line BRK';letter-spacing:0px;word-spacing:0px;fill:#ffffff;fill-opacity:1;stroke:none;stroke-width:0.61204094"
             id="path7222"
             inkscape:connector-curvature="0" />
          <path
             d="M 71.398014,182.35298 H 86.821445 V 181.2513 H 71.398014 Z m 0,-2.20335 h 15.423431 v -1.10167 H 71.398014 Z m 8.813389,-2.20335 h 6.610042 v -1.10167 h -6.610042 z m -8.813389,0 h 6.610042 v -1.10167 h -6.610042 z m 0,13.22009 h 4.406695 v -1.10168 h -4.406695 z m 0,-15.42343 h 4.406695 v -1.10168 h -4.406695 z m 0,8.81338 h 4.406695 v -1.10167 h -4.406695 z m 11.016736,-8.81338 h 4.406695 v -1.10168 H 82.41475 Z m -11.016736,13.22008 h 4.406695 v -1.10167 h -4.406695 z m 0,-2.20335 h 4.406695 V 185.658 h -4.406695 z m 11.016736,4.4067 h 4.406695 v -1.10168 H 82.41475 Z m 0,-4.4067 h 4.406695 V 185.658 H 82.41475 Z m 0,-2.20335 h 4.406695 v -1.10167 H 82.41475 Z m 0,4.4067 h 4.406695 v -1.10167 H 82.41475 Z m -4.406694,-4.4067 h 2.203347 v -1.10167 h -2.203347 z"
             style="font-style:normal;font-variant:normal;font-weight:normal;font-stretch:normal;font-size:medium;line-height:1.25;font-family:'Edit Undo Line BRK';-inkscape-font-specification:'Edit Undo Line BRK';letter-spacing:0px;word-spacing:0px;fill:#ffffff;fill-opacity:1;stroke:none;stroke-width:0.61204094"
             id="path7224"
             inkscape:connector-curvature="0" />
          <path
             d="m 87.942249,188.96302 h 13.220081 v -1.10167 H 87.942249 Z m 0,-11.01674 h 13.220081 v -1.10167 H 87.942249 Z m 2.203348,-2.20334 h 11.016733 v -1.10168 H 90.145597 Z m 0,15.42343 h 11.016733 v -1.10168 H 90.145597 Z m -2.203348,-8.81339 h 8.813389 v -1.10168 h -8.813389 z m 0,2.20334 h 8.813389 v -1.10167 h -8.813389 z m 0,-4.40669 h 4.406695 v -1.10167 h -4.406695 z m 0,6.61004 h 4.406695 V 185.658 h -4.406695 z"
             style="font-style:normal;font-variant:normal;font-weight:normal;font-stretch:normal;font-size:medium;line-height:1.25;font-family:'Edit Undo Line BRK';-inkscape-font-specification:'Edit Undo Line BRK';letter-spacing:0px;word-spacing:0px;fill:#ffffff;fill-opacity:1;stroke:none;stroke-width:0.61204094"
             id="path7226"
             inkscape:connector-curvature="0" />
          <path
             d="m 102.28696,182.35298 h 13.22008 v -1.10168 h -13.22008 z m 0,-4.4067 h 13.22008 v -1.10167 h -13.22008 z m 0,-2.20334 h 11.01674 v -1.10168 h -11.01674 z m 0,8.81338 h 11.01674 v -1.10167 h -11.01674 z m 6.61004,2.20335 h 6.61004 V 185.658 H 108.897 Z m 2.20335,-6.61004 h 4.40669 v -1.10167 h -4.40669 z m -8.81339,11.01674 h 4.4067 v -1.10168 h -4.4067 z m 8.81339,-2.20335 h 4.40669 v -1.10167 h -4.40669 z m -8.81339,-8.81339 h 4.4067 v -1.10167 h -4.4067 z m 0,6.61004 h 4.4067 V 185.658 h -4.4067 z m 8.81339,4.4067 h 4.40669 v -1.10168 h -4.40669 z m -8.81339,-2.20335 h 4.4067 v -1.10167 h -4.4067 z"
             style="font-style:normal;font-variant:normal;font-weight:normal;font-stretch:normal;font-size:medium;line-height:1.25;font-family:'Edit Undo Line BRK';-inkscape-font-specification:'Edit Undo Line BRK';letter-spacing:0px;word-spacing:0px;fill:#ffffff;fill-opacity:1;stroke:none;stroke-width:0.61204094"
             id="path7228"
             inkscape:connector-curvature="0" />
        </g>
      </g>
    </g>
    <g
       aria-label="®"
       transform="matrix(0.10659184,0,0,0.10659184,26.044983,163.75374)"
       style="font-style:normal;font-variant:normal;font-weight:normal;font-stretch:normal;font-size:40px;line-height:1.25;font-family:arial;-inkscape-font-specification:arial;letter-spacing:0px;word-spacing:0px;fill:#000000;fill-opacity:1;stroke:none"
       id="flowRoot4945">
      <path
         d="m 865.84766,101.98721 q 3.71093,0 7.24609,1.91406 3.53516,1.89453 5.50781,5.44922 1.97266,3.53516 1.97266,7.38281 0,3.8086 -1.95313,7.32422 -1.93359,3.51563 -5.44922,5.46875 -3.49609,1.93359 -7.32421,1.93359 -3.82813,0 -7.34375,-1.93359 -3.4961,-1.95312 -5.44922,-5.46875 -1.95313,-3.51562 -1.95313,-7.32422 0,-3.84765 1.97266,-7.38281 1.99219,-3.55469 5.52734,-5.44922 3.53516,-1.91406 7.2461,-1.91406 z m 0,2.4414 q -3.10547,0 -6.05469,1.60157 -2.92969,1.58203 -4.58985,4.55078 -1.66015,2.94922 -1.66015,6.15234 0,3.1836 1.62109,6.11328 1.64063,2.91016 4.57031,4.55078 2.92969,1.6211 6.11329,1.6211 3.18359,0 6.11328,-1.6211 2.92968,-1.64062 4.55078,-4.55078 1.62109,-2.92968 1.62109,-6.11328 0,-3.20312 -1.66015,-6.15234 -1.64063,-2.96875 -4.58985,-4.55078 -2.94922,-1.60157 -6.03515,-1.60157 z m -6.46485,20.44922 v -15.85937 h 5.44922 q 2.79297,0 4.04297,0.44922 1.25,0.42968 1.99219,1.52343 0.74218,1.09375 0.74218,2.32422 0,1.73828 -1.25,3.02735 -1.23046,1.28906 -3.28125,1.44531 0.83985,0.35156 1.34766,0.83984 0.95703,0.9375 2.34375,3.14453 l 1.93359,3.10547 h -3.125 l -1.40625,-2.5 q -1.66015,-2.94922 -2.67578,-3.6914 -0.70312,-0.54688 -2.05078,-0.54688 h -1.5039 v 6.73828 z m 2.5586,-8.92578 h 3.10546 q 2.22657,0 3.02735,-0.66406 0.82031,-0.66406 0.82031,-1.75781 0,-0.70313 -0.39062,-1.25 -0.39063,-0.56641 -1.09375,-0.83985 -0.6836,-0.27343 -2.5586,-0.27343 h -2.91015 z"
         style="fill:#ffffff"
         id="path7201"
         inkscape:connector-curvature="0" />
    </g>
  </g>
</svg>
